<svg xmlns="http://www.w3.org/2000/svg" height="48" width="48"><path d="M23.95 46.1Q23.55 46.1 23.15 45.95Q22.75 45.8 22.4 45.45L2.55 25.55Q2.2 25.2 2.05 24.8Q1.9 24.4 1.9 24Q1.9 23.6 2.05 23.2Q2.2 22.8 2.55 22.45L22.4 2.55Q22.75 2.2 23.15 2.05Q23.55 1.9 23.95 1.9Q24.35 1.9 24.775 2.05Q25.2 2.2 25.55 2.55L45.45 22.45Q45.8 22.8 45.95 23.2Q46.1 23.6 46.1 24Q46.1 24.4 45.95 24.8Q45.8 25.2 45.45 25.55L25.55 45.45Q25.2 45.8 24.775 45.95Q24.35 46.1 23.95 46.1ZM24 34.8 27.35 27.35 34.8 24 27.35 20.65 24 13.2 20.65 20.65 13.2 24 20.65 27.3Z"/></svg>